HIERARCHY
ROOT hip
{
	OFFSET 0.000000 0.000000 0.000000 
	CHANNELS 6 Xposition Yposition Zposition Xrotation Zrotation Yrotation
	JOINT abdomen
	{
		OFFSET 0.000000 3.402643 0.000000 
		CHANNELS 3 Xrotation Zrotation Yrotation
		JOINT chest
		{
			OFFSET 0.000000 8.438565 -0.680529 
			CHANNELS 3 Xrotation Zrotation Yrotation
			JOINT neck
			{
				OFFSET 0.000000 10.207942 -0.272212 
				CHANNELS 3 Xrotation Zrotation Yrotation
				JOINT head
				{
					OFFSET 0.000000 3.130431 0.000000 
					CHANNELS 3 Xrotation Zrotation Yrotation
					End Site
					{
						OFFSET 0.000000 3.130435 0.000000 
					}
				}
			}
			JOINT lCollar
			{
				OFFSET 3.470700 6.669187 -0.816635 
				CHANNELS 3 Yrotation Zrotation Xrotation
				JOINT lShldr
				{
					OFFSET 3.198488 0.000000 0.000000 
					CHANNELS 3 Zrotation Yrotation Xrotation
					JOINT lForeArm
					{
						OFFSET 10.139888 0.000000 0.000000 
						CHANNELS 3 Yrotation Zrotation Xrotation
						JOINT lHand
						{
							OFFSET 8.370511 0.000000 0.000000 
							CHANNELS 3 Zrotation Yrotation Xrotation
							End Site
							{
								OFFSET 4.083176 0.000000 0.000000 
							}
						}
					}
				}
			}
			JOINT rCollar
			{
				OFFSET -3.470700 6.669187 -0.816635 
				CHANNELS 3 Yrotation Zrotation Xrotation
				JOINT rShldr
				{
					OFFSET -3.198488 0.000000 0.000000 
					CHANNELS 3 Zrotation Yrotation Xrotation
					JOINT rForeArm
					{
						OFFSET -10.139888 0.000000 0.000000 
						CHANNELS 3 Yrotation Zrotation Xrotation
						JOINT rHand
						{
							OFFSET -8.370511 0.000000 0.000000 
							CHANNELS 3 Zrotation Yrotation Xrotation
							End Site
							{
								OFFSET -4.083176 0.000000 0.000000 
							}
						}
					}
				}
			}
		}
	}
	JOINT lThigh
	{
		OFFSET 5.308129 -1.633274 1.361059 
		CHANNELS 3 Xrotation Zrotation Yrotation
		JOINT lShin
		{
			OFFSET -2.041588 -20.007561 0.000000 
			CHANNELS 3 Xrotation Zrotation Yrotation
			JOINT lFoot
			{
				OFFSET 0.000000 -19.190928 -1.224953 
				CHANNELS 3 Xrotation Yrotation Zrotation
				End Site
				{
					OFFSET 0.000000 -2.449906 4.627600 
				}
			}
		}
	}
	JOINT rThigh
	{
		OFFSET -5.308129 -1.633274 1.361059 
		CHANNELS 3 Xrotation Zrotation Yrotation
		JOINT rShin
		{
			OFFSET 2.041588 -20.007561 0.000000 
			CHANNELS 3 Xrotation Zrotation Yrotation
			JOINT rFoot
			{
				OFFSET 0.000000 -19.190928 -1.224953 
				CHANNELS 3 Xrotation Yrotation Zrotation
				End Site
				{
					OFFSET 0.000000 -2.449906 4.627600 
				}
			}
		}
	}
}
MOTION
Frames: 16
Frame Time: 0.033333
1.622915 49.258049 0.415008 -16.943357 32.412109 -149.330704 55.285240 -7.514746 -15.209513 -24.707031 15.449221 3.469398 51.063168 8.107644 2.471410 -100.429688 8.349608 1.103516 2.000000 -2.000000 0.000000 -55.976563 2.441406 -89.687500 -97.299309 0.351834 -2.911671 -39.957458 9.289768 -81.608284 -2.000000 2.000000 0.000000 87.802734 -29.404295 -72.758698 133.420395 -2.475745 -2.721942 66.144852 -20.919737 -40.310509 -61.664978 44.381477 -1.458303 32.693512 -4.366560 -2.921571 -4.935407 -7.468299 -12.208620 -50.550873 1.621166 -12.876232 23.010990 4.826854 1.425038 0.214518 -1.657318 11.169917 
1.358176 49.452461 0.252032 -16.855467 31.904299 -149.115921 54.911236 -7.442022 -15.037827 -24.697268 15.625002 3.486328 51.063168 8.107644 2.471410 -100.439453 8.691405 1.240234 2.000000 -2.000000 0.000000 -59.638672 4.541016 -85.301956 -99.409195 0.438449 -2.936253 -40.411293 9.092569 -79.578499 -2.000000 2.000000 0.000000 88.613281 -29.667973 -71.567337 133.420395 -2.475745 -2.721942 65.743217 -21.445473 -39.184750 -60.060539 44.018066 -0.773536 31.820492 -4.414907 -2.853796 -4.840381 -7.258094 -12.256307 -49.337540 1.436477 -12.950334 21.957932 4.842791 1.350293 0.710337 -1.472651 10.935363 
1.092001 49.690193 0.089126 -16.572264 31.425783 -149.086700 54.373745 -7.653690 -14.716611 -24.873049 15.810548 3.623047 51.063168 8.107644 2.471410 -100.263672 8.916016 1.005859 2.000000 -2.000000 0.000000 -62.607418 6.123047 -81.219818 -101.680367 0.690651 -2.804211 -41.149036 8.359527 -77.441208 -2.000000 2.000000 0.000000 89.990234 -30.556641 -71.391685 133.069427 -2.455116 -2.740304 65.396080 -22.179695 -39.202415 -58.287552 43.542427 0.084670 30.767225 -4.473468 -2.782678 -4.408742 -7.047375 -12.544094 -48.104160 1.240327 -13.024759 20.909887 4.812433 1.939719 1.064102 -1.262786 10.847784 
0.827063 49.870174 -0.082831 -16.464844 30.908201 -148.867188 53.826756 -7.868852 -14.386439 -25.048828 15.996095 3.772223 51.063168 8.107644 2.471410 -100.283203 9.150389 0.538662 2.000000 -2.000000 0.000000 -64.833984 8.349609 -77.265625 -103.789391 0.788708 -2.800121 -41.887581 8.096045 -75.809608 -2.000000 2.000000 0.000000 91.640625 -31.845703 -71.655540 132.718704 -2.443671 -2.768975 64.743446 -23.591860 -38.887505 -56.203819 43.090244 1.452550 30.067322 -4.493453 -2.904914 -4.828497 -6.949667 -12.071320 -46.746090 1.025596 -12.204721 19.671265 4.920384 1.193309 1.239196 -1.472201 10.975340 
0.578679 50.049259 -0.224642 -16.171875 30.439455 -148.539978 53.291706 -8.362878 -13.895187 -25.048830 16.347654 3.974609 51.063168 8.107644 2.471410 -100.302734 9.374998 -0.263672 2.000000 -2.000000 0.000000 -66.210938 10.058594 -73.496094 -105.711967 1.219370 -2.795975 -42.190353 8.049708 -74.077965 -2.000000 2.000000 0.000000 92.597656 -32.607426 -72.099617 132.367447 -2.423608 -2.777590 64.399437 -24.707935 -38.592087 -54.850311 42.790398 1.985084 29.200342 -4.551119 -2.829106 -4.704245 -6.974239 -12.501496 -45.689686 0.722790 -12.715377 18.949507 4.881294 1.594639 1.614910 -1.156700 10.924499 
0.374217 50.237335 -0.358087 -15.859373 29.785158 -148.461945 52.759964 -8.773118 -13.545672 -25.224611 16.523438 4.111329 51.063168 8.107644 2.471410 -100.312492 9.492187 -0.906593 2.000000 -2.000000 0.000000 -67.236328 11.914063 -70.603455 -107.293655 1.278430 -2.789632 -42.746861 7.740189 -72.601089 -2.000000 2.000000 0.000000 92.773438 -32.705078 -72.373047 131.853256 -2.261406 -2.875749 63.987621 -24.939894 -39.495193 -53.177101 42.172382 2.639848 28.305887 -4.580606 -2.762371 -4.583002 -6.768234 -12.571050 -44.660240 0.342476 -12.534766 18.249203 4.914615 1.687476 1.744978 -1.224821 10.896658 
0.252976 50.364628 -0.456842 -15.595702 29.306641 -148.169037 52.205338 -9.280194 -13.048684 -25.390625 16.699219 4.238281 51.063168 8.107644 2.471410 -100.322266 9.716795 -1.697570 2.000000 -2.000000 0.000000 -66.406250 12.412110 -68.699074 -108.524055 1.327177 -2.792467 -43.137829 7.678148 -71.500694 -2.000000 2.000000 0.000000 91.738281 -32.529301 -71.992188 131.313919 -2.392100 -2.814877 63.545681 -25.336609 -40.297028 -51.930031 41.793823 2.841530 27.597967 -4.613993 -2.712283 -4.577646 -6.663497 -12.715656 -43.825523 0.127290 -12.116121 17.720684 4.999149 1.013436 2.115394 -1.239958 10.944257 
0.209314 50.414589 -0.482343 -15.283204 28.632814 -148.017578 51.693562 -9.794453 -12.844145 -25.585938 16.699221 4.199219 51.063168 8.107644 2.471410 -100.341797 9.951172 -2.517844 2.000000 -2.000000 0.000000 -64.355469 12.451172 -67.880859 -109.404701 1.002627 -2.822308 -43.163818 7.982224 -70.822540 -2.000000 2.000000 0.000000 91.582031 -32.578125 -71.802132 131.138168 -2.382351 -2.814312 63.246506 -25.330214 -40.948345 -50.654469 41.396538 3.379997 26.532417 -4.648387 -2.621976 -3.899838 -6.592315 -12.891392 -43.161572 -0.243954 -11.996668 17.542206 4.978652 1.034974 2.081357 -1.344662 10.690235 
0.240223 50.414509 -0.455196 -15.009764 28.164063 -147.993439 51.167469 -10.139074 -12.646520 -25.566408 16.874998 4.199219 51.063168 8.107644 2.471410 -100.361328 10.166015 -3.133042 2.000000 -2.000000 0.000000 -61.640625 11.787110 -67.695313 -109.929710 1.367303 -2.775245 -43.007538 8.005073 -70.448227 -2.000000 2.000000 0.000000 91.718750 -32.490234 -71.040398 131.513229 -2.326548 -2.596350 63.516361 -25.922014 -40.846397 -50.044922 41.275917 3.060011 26.371138 -4.668310 -2.593995 -3.641392 -6.502765 -13.195708 -42.621159 -0.379985 -12.249557 17.715849 4.919465 1.498767 2.117926 -1.156238 10.756098 
0.330257 50.423996 -0.418634 -14.511719 27.529297 -147.759155 50.650101 -10.465444 -12.442398 -25.585938 16.699221 4.199219 51.063168 8.107644 2.471410 -100.400391 10.517578 -3.701172 2.000000 -2.000000 0.000000 -58.916016 11.250000 -67.900391 -110.280975 1.387367 -2.766634 -42.952503 8.159184 -70.127991 -2.000000 2.000000 0.000000 91.865234 -32.656250 -69.863281 132.191696 -2.413859 -2.777025 64.501198 -25.936399 -41.177509 -49.417969 41.147312 2.906940 26.359545 -4.648380 -2.443177 -3.587130 -6.336297 -13.153921 -42.286663 -0.740832 -12.296035 18.252083 4.902267 1.696284 2.064052 -1.217816 10.528257 
0.472073 50.374630 -0.384089 -14.042968 26.875002 -147.368637 50.521889 -10.704196 -12.699159 -25.585938 16.699221 4.023438 51.063168 8.107644 2.471410 -100.253906 10.859374 -4.089957 2.000000 -2.000000 0.000000 -57.031250 11.250000 -68.240280 -110.826286 0.874345 -3.010430 -42.498249 8.345738 -69.403297 -2.000000 2.000000 0.000000 92.294922 -32.490234 -68.525391 132.718430 -2.444236 -2.759229 64.701279 -26.407158 -40.261208 -48.845642 40.935661 2.830231 26.536760 -4.662766 -2.431575 -3.356157 -6.367015 -13.542172 -42.131184 -0.760691 -12.098674 18.946730 4.893791 1.586767 1.937111 -1.422177 10.593245 
0.643075 50.347507 -0.360438 -13.564452 26.240236 -147.232010 50.387314 -10.657619 -13.133370 -25.585938 16.347656 3.476563 51.063168 8.107644 2.471410 -100.312492 11.435546 -4.597673 2.000000 -2.000000 0.000000 -55.371094 11.806641 -68.044876 -111.523476 1.090935 -2.817652 -42.862015 8.233640 -69.545738 -2.000000 2.000000 0.000000 92.265625 -32.529297 -66.669922 133.069687 -2.454551 -2.750049 64.861984 -26.601835 -40.219509 -48.330368 40.937634 3.067241 26.900549 -4.483238 -2.752282 -3.691837 -6.230792 -13.646783 -41.819653 -0.975590 -11.555066 19.491886 4.912173 1.176654 1.801242 -1.260905 11.297537 
0.843439 50.243011 -0.377192 -12.900390 25.605467 -146.958664 50.469051 -10.615234 -13.868181 -25.410156 15.996095 2.958985 51.063168 8.107644 2.471410 -100.185547 11.904296 -4.736329 2.000000 -2.000000 0.000000 -54.609375 12.509766 -67.839684 -111.875031 1.100684 -2.818217 -43.000538 8.170944 -69.276337 -2.000000 2.000000 0.000000 92.343750 -32.587887 -64.580078 133.087921 -2.214780 -2.667701 63.917259 -26.139420 -39.451672 -47.619793 40.931118 3.002705 27.072069 -4.619225 -2.670185 -3.479360 -6.234894 -13.700351 -41.497879 -1.005151 -11.191788 20.190996 4.891616 1.241379 1.605414 -1.190752 11.338269 
1.021407 50.137424 -0.450679 -12.236327 24.980469 -146.870880 50.699455 -10.341878 -14.634546 -25.068359 15.468751 2.314454 51.063168 8.107644 2.471410 -100.078125 12.490232 -4.861169 2.000000 -2.000000 0.000000 -54.765625 13.945313 -66.804291 -111.511375 1.436113 -2.769470 -42.812778 9.169924 -68.046089 -2.000000 2.000000 0.000000 92.226563 -33.476563 -61.953121 133.069687 -2.454551 -2.750049 63.069202 -25.672838 -38.951305 -46.686787 41.267105 3.062677 27.073462 -4.648627 -2.501822 -2.888503 -6.193737 -13.644997 -40.945229 -0.839765 -11.254196 20.544329 4.813807 1.734428 1.578483 -1.611501 11.073202 
1.116748 50.058826 -0.624349 -11.396484 24.179688 -146.695221 50.947948 -10.189431 -15.530026 -24.921877 14.755860 1.601563 51.063168 8.107644 2.471410 -99.970703 13.095702 -5.146485 2.000000 -2.000000 0.000000 -56.826168 16.533201 -66.628082 -109.929710 1.367303 -2.775245 -42.064365 11.054954 -65.726646 -2.000000 2.000000 0.000000 91.923828 -33.701172 -59.716793 131.489426 -2.402414 -2.805697 61.101685 -26.516497 -37.953907 -45.072887 41.625744 3.998911 27.420277 -4.708047 -2.562724 -3.033318 -6.444768 -13.152963 -39.927040 -0.556598 -10.084936 20.889643 4.894308 1.416777 1.250445 -1.544379 11.489794 
1.113536 50.030373 -0.906784 -10.361328 23.378908 -146.822296 51.200512 -9.942600 -16.569870 -24.580078 14.218751 0.771484 51.063168 8.107644 2.471410 -99.697266 13.710937 -5.224609 2.000000 -2.000000 0.000000 -60.000000 19.521484 -66.230469 -107.475906 1.090797 -2.651599 -40.259968 13.719256 -61.940212 -2.000000 2.000000 0.000000 91.445313 -33.730469 -57.275391 128.160278 -2.235548 -2.815581 59.116669 -28.955549 -37.476692 -42.938614 42.244999 5.488083 27.246695 -4.643238 -2.689943 -2.880991 -6.542301 -13.030997 -38.481812 -0.058312 -9.894763 20.900188 4.812424 1.929190 1.228961 -1.760047 11.567739 
